<svg id="レイヤー_1" data-name="レイヤー 1" xmlns="http://www.w3.org/2000/svg" viewBox="0 0 219 285"><defs><style>.cls-1{fill:#fff;}.cls-2{fill:#5c8df0;}</style></defs><title>calunit</title><rect class="cls-1" x="0.5" y="0.5" width="218" height="284" rx="16.34"/><path class="cls-2" d="M295.16,52A15.85,15.85,0,0,1,311,67.84V319.16A15.85,15.85,0,0,1,295.16,335H109.84A15.85,15.85,0,0,1,94,319.16V67.84A15.85,15.85,0,0,1,109.84,52H295.16m0-1H109.84A16.84,16.84,0,0,0,93,67.84V319.16A16.84,16.84,0,0,0,109.84,336H295.16A16.84,16.84,0,0,0,312,319.16V67.84A16.84,16.84,0,0,0,295.16,51Z" transform="translate(-93 -51)"/><rect class="cls-2" x="22.5" y="23.5" width="177" height="51"/><path class="cls-2" d="M292,75v50H116V75H292m1-1H115v52H293V74Z" transform="translate(-93 -51)"/><rect class="cls-2" x="22.5" y="95.5" width="30" height="30"/><path class="cls-2" d="M145,147v29H116V147h29m1-1H115v31h31V146Z" transform="translate(-93 -51)"/><rect class="cls-2" x="22.5" y="140.5" width="30" height="30"/><path class="cls-2" d="M145,192v29H116V192h29m1-1H115v31h31V191Z" transform="translate(-93 -51)"/><rect class="cls-2" x="22.5" y="184.5" width="30" height="30"/><path class="cls-2" d="M145,236v29H116V236h29m1-1H115v31h31V235Z" transform="translate(-93 -51)"/><rect class="cls-2" x="73.5" y="95.5" width="30" height="30"/><path class="cls-2" d="M196,147v29H167V147h29m1-1H166v31h31V146Z" transform="translate(-93 -51)"/><rect class="cls-2" x="73.5" y="140.5" width="30" height="30"/><path class="cls-2" d="M196,192v29H167V192h29m1-1H166v31h31V191Z" transform="translate(-93 -51)"/><rect class="cls-2" x="73.5" y="184.5" width="30" height="30"/><path class="cls-2" d="M196,236v29H167V236h29m1-1H166v31h31V235Z" transform="translate(-93 -51)"/><rect class="cls-2" x="121.5" y="95.5" width="30" height="30"/><path class="cls-2" d="M244,147v29H215V147h29m1-1H214v31h31V146Z" transform="translate(-93 -51)"/><rect class="cls-2" x="121.5" y="140.5" width="30" height="30"/><path class="cls-2" d="M244,192v29H215V192h29m1-1H214v31h31V191Z" transform="translate(-93 -51)"/><rect class="cls-2" x="121.5" y="184.5" width="30" height="30"/><path class="cls-2" d="M244,236v29H215V236h29m1-1H214v31h31V235Z" transform="translate(-93 -51)"/><rect class="cls-2" x="169.5" y="95.5" width="30" height="30"/><path class="cls-2" d="M292,147v29H263V147h29m1-1H262v31h31V146Z" transform="translate(-93 -51)"/><rect class="cls-2" x="169.5" y="140.5" width="30" height="30"/><path class="cls-2" d="M292,192v29H263V192h29m1-1H262v31h31V191Z" transform="translate(-93 -51)"/><rect class="cls-2" x="169.5" y="184.5" width="30" height="30"/><path class="cls-2" d="M292,236v29H263V236h29m1-1H262v31h31V235Z" transform="translate(-93 -51)"/><rect class="cls-2" x="121.5" y="230.5" width="30" height="30"/><path class="cls-2" d="M244,282v29H215V282h29m1-1H214v31h31V281Z" transform="translate(-93 -51)"/><rect class="cls-2" x="169.5" y="230.5" width="30" height="30"/><path class="cls-2" d="M292,282v29H263V282h29m1-1H262v31h31V281Z" transform="translate(-93 -51)"/><rect class="cls-2" x="22.5" y="230.5" width="81" height="30"/><path class="cls-2" d="M196,282v29H116V282h80m1-1H115v31h82V281Z" transform="translate(-93 -51)"/></svg>